<?xml version="1.0" encoding="utf-8"?>
<!-- Generator: Adobe Illustrator 21.0.0, SVG Export Plug-In . SVG Version: 6.00 Build 0)  -->
<svg version="1.1" id="Layer_1" xmlns="http://www.w3.org/2000/svg" xmlns:xlink="http://www.w3.org/1999/xlink" x="0px" y="0px"
	 viewBox="0 0 459 736" style="enable-background:new 0 0 459 736;" xml:space="preserve">
<style type="text/css">
	.st0{fill:#E6E6E6;}
	.st1{fill:#666666;}
	.st2{fill:#F2F2F2;}
	.st3{fill:#FFFFFF;}
	.st4{fill:url(#SVGID_1_);}
	.st5{fill-rule:evenodd;clip-rule:evenodd;fill:#FFFFFF;}
	.st6{fill:url(#SVGID_2_);}
	.st7{fill:#FFCCC4;}
	.st8{opacity:0.2;}
	.st9{fill:url(#SVGID_3_);}
	.st10{fill:url(#SVGID_4_);}
	.st11{fill:none;}
	.st12{opacity:0.5;fill:#CCCCCC;}
	.st13{fill-rule:evenodd;clip-rule:evenodd;fill:#E2001D;}
	.st14{fill-rule:evenodd;clip-rule:evenodd;}
	.st15{fill:#E2001D;}
	.st16{clip-path:url(#SVGID_6_);fill:url(#SVGID_7_);}
	.st17{opacity:0.4;}
	.st18{opacity:0.4;fill:#FFFFFF;}
	.st19{opacity:0.2;fill:url(#SVGID_8_);}
	.st20{clip-path:url(#SVGID_10_);}
	.st21{fill:#B3B3B3;}
	.st22{fill-rule:evenodd;clip-rule:evenodd;fill:#F2F2F2;}
	.st23{opacity:0.3;}
	.st24{fill:url(#SVGID_11_);}
	.st25{fill:url(#SVGID_12_);}
	.st26{fill:url(#SVGID_13_);}
	.st27{fill:#FF9C91;}
	.st28{fill:url(#SVGID_14_);}
	.st29{opacity:0.3;fill:#FF9C91;}
	.st30{fill:#808080;}
	.st31{opacity:0.2;fill:#FFFFFF;}
	.st32{opacity:0.3;fill:#FFFFFF;}
	.st33{clip-path:url(#SVGID_16_);}
	.st34{fill:#4D4D4D;}
	.st35{fill:#1A1A1A;}
	.st36{fill:none;stroke:#4D4D4D;stroke-width:7;stroke-miterlimit:10;}
	.st37{opacity:0.5;clip-path:url(#SVGID_18_);fill:url(#SVGID_19_);}
	.st38{fill:#999999;}
	.st39{fill:url(#SVGID_20_);}
	.st40{fill:url(#SVGID_21_);}
	.st41{fill:#CCCCCC;}
	.st42{fill:#8CC63F;}
	.st43{clip-path:url(#SVGID_23_);}
	.st44{fill:url(#SVGID_24_);}
	.st45{fill:#8EC13D;}
	.st46{fill:url(#SVGID_25_);}
	.st47{fill:#FFE1C3;}
	.st48{fill:url(#SVGID_26_);}
	.st49{fill:url(#SVGID_27_);}
	.st50{fill:url(#SVGID_28_);}
	.st51{fill:url(#SVGID_29_);}
	.st52{fill:url(#SVGID_30_);}
	.st53{fill:url(#SVGID_31_);}
	.st54{fill:url(#SVGID_32_);}
	.st55{fill:url(#SVGID_33_);}
	.st56{opacity:0.3;fill:url(#SVGID_34_);}
	.st57{opacity:0.3;fill:url(#SVGID_35_);}
	.st58{opacity:0.3;fill:url(#SVGID_36_);}
	.st59{opacity:0.3;fill:url(#SVGID_37_);}
	.st60{fill:url(#SVGID_38_);}
	.st61{clip-path:url(#SVGID_40_);fill:url(#SVGID_41_);}
	.st62{fill:url(#SVGID_42_);}
	.st63{opacity:0.3;fill:url(#SVGID_43_);}
	.st64{opacity:0.3;fill:url(#SVGID_44_);}
	.st65{opacity:0.3;fill:url(#SVGID_45_);}
	.st66{opacity:0.3;fill:url(#SVGID_46_);}
	.st67{opacity:0.3;fill:url(#SVGID_47_);}
	.st68{opacity:0.3;fill:url(#SVGID_48_);}
	.st69{opacity:0.3;fill:url(#SVGID_49_);}
	.st70{fill:#F33C3C;}
	.st71{fill:#FF6D63;}
	.st72{fill-rule:evenodd;clip-rule:evenodd;fill:url(#SVGID_50_);}
	.st73{fill-rule:evenodd;clip-rule:evenodd;fill:url(#SVGID_51_);}
	.st74{fill-rule:evenodd;clip-rule:evenodd;fill:url(#SVGID_52_);}
	.st75{stroke:#000000;stroke-width:0.1;stroke-miterlimit:10;}
	.st76{clip-path:url(#SVGID_60_);}
	.st77{fill:none;stroke:#E2001D;stroke-width:2;stroke-miterlimit:10;}
	.st78{fill:none;stroke:#E2001D;stroke-width:0.65;stroke-miterlimit:10;}
	.st79{fill:none;stroke:#E2001D;stroke-width:0.65;stroke-linecap:round;stroke-miterlimit:10;}
	.st80{fill:none;stroke:#E2001D;stroke-width:3;stroke-miterlimit:10;}
	.st81{fill:none;stroke:#E2001D;stroke-width:3;stroke-linecap:round;stroke-miterlimit:10;}
	.st82{clip-path:url(#SVGID_62_);}
	.st83{fill:url(#SVGID_63_);}
	.st84{fill:url(#SVGID_64_);}
	.st85{fill:url(#SVGID_65_);}
	.st86{fill:url(#SVGID_66_);}
	.st87{fill:url(#SVGID_67_);}
	.st88{fill:url(#SVGID_68_);}
	.st89{fill:url(#SVGID_69_);}
	.st90{fill:url(#SVGID_70_);}
	.st91{fill:url(#SVGID_71_);}
	.st92{clip-path:url(#SVGID_73_);}
	.st93{clip-path:url(#SVGID_75_);fill:#E2001D;}
	.st94{clip-path:url(#SVGID_75_);fill:#FFFFFF;}
	.st95{clip-path:url(#SVGID_75_);fill:#78C241;}
	.st96{clip-path:url(#SVGID_75_);}
	.st97{clip-path:url(#SVGID_77_);}
	.st98{clip-path:url(#SVGID_79_);fill:#FFFFFF;}
	.st99{clip-path:url(#SVGID_75_);fill-rule:evenodd;clip-rule:evenodd;fill:#FFFFFF;}
	.st100{clip-path:url(#SVGID_75_);fill-rule:evenodd;clip-rule:evenodd;}
	.st101{clip-path:url(#SVGID_81_);}
	.st102{clip-path:url(#SVGID_83_);fill:#E2001D;}
	.st103{clip-path:url(#SVGID_83_);fill:#FFFFFF;}
	.st104{clip-path:url(#SVGID_83_);fill:#78C241;}
	.st105{clip-path:url(#SVGID_83_);}
	.st106{clip-path:url(#SVGID_85_);}
	.st107{clip-path:url(#SVGID_87_);fill:#FFFFFF;}
	.st108{clip-path:url(#SVGID_83_);fill-rule:evenodd;clip-rule:evenodd;fill:#FFFFFF;}
	.st109{clip-path:url(#SVGID_83_);fill-rule:evenodd;clip-rule:evenodd;}
	.st110{fill:none;stroke:#E2001D;stroke-width:2.5;stroke-miterlimit:10;}
	.st111{fill:#FFFFFF;stroke:#E2001D;stroke-width:2.5;stroke-miterlimit:10;}
	.st112{fill:none;stroke:#E2001D;stroke-width:2.5;stroke-linecap:round;stroke-miterlimit:10;}
	.st113{fill:none;stroke:#E2001D;stroke-width:2.5;stroke-linecap:round;stroke-miterlimit:10;stroke-dasharray:6,6;}
	.st114{fill:#FFFFFF;stroke:#E2001D;stroke-width:3;stroke-miterlimit:10;}
	.st115{fill:none;stroke:#E2001D;stroke-width:3;stroke-linecap:round;stroke-miterlimit:10;stroke-dasharray:4,6;}
	.st116{fill:none;stroke:#E2001D;stroke-width:3;stroke-linecap:round;stroke-linejoin:round;stroke-miterlimit:10;}
	.st117{fill:none;stroke:#E2001D;stroke-width:2;stroke-linecap:round;stroke-miterlimit:10;}
	.st118{fill:#FFFFFF;stroke:#E2001D;stroke-width:2;stroke-miterlimit:10;}
	.st119{fill:#FFFFFF;stroke:#E2001D;stroke-width:2;stroke-linejoin:round;stroke-miterlimit:10;}
	.st120{fill:#E2001D;stroke:#E2001D;stroke-width:0.5;stroke-miterlimit:10;}
	.st121{fill:none;stroke:#E2001D;stroke-miterlimit:10;}
</style>
<g>
	<path class="st0" d="M262.6,715.3c1-0.7,34.7-5.7,35.8-6.3c17.8-9.8,146.5-95.6,157.5-146.7c5.7-26.4-54.6-67.4-98.2-102.2
		s-76.4-13.9-126.6,7c-50.2,20.9-139.8,30.2-185.5,48.9C7,531.7-16.8,574.7,15,613.4C46.3,651.5,177,773.7,262.6,715.3z"/>
	<g>
		<path class="st21" d="M457,736H0v-27.4c0-4.4,3.6-8,8-8h441c4.4,0,8,3.6,8,8V736z"/>
		<rect y="732.2" class="st2" width="457" height="3.8"/>
	</g>
	<g>
		<g>
			<path class="st15" d="M149.4,645.2H140c-3.4,0-6.2-2.8-6.2-6.2V550c0-3.4,2.8-6.2,6.2-6.2h9.3c3.4,0,6.2,2.8,6.2,6.2v89.1
				C155.5,642.5,152.8,645.2,149.4,645.2z"/>
			<path class="st15" d="M152.2,549.6h-14.5c-0.3,0-0.5-0.2-0.5-0.5v-96.7c0-2.3,1.9-4.3,4.3-4.3h6.5c2.3,0,4.3,1.9,4.3,4.3
				L152.2,549.6C152.2,549.6,152.2,549.6,152.2,549.6z"/>
			<path class="st34" d="M148.4,607.2H141c-2.7,0-4.9-2.2-4.9-4.9v-46c0-2.7,2.2-4.9,4.9-4.9h7.4c2.7,0,4.9,2.2,4.9,4.9v46
				C153.3,605,151.1,607.2,148.4,607.2z"/>
			<path class="st35" d="M148.4,650.9H141c-2.7,0-4.9-2.2-4.9-4.9v-26.1c0-2.7,2.2-4.9,4.9-4.9h7.4c2.7,0,4.9,2.2,4.9,4.9v26.1
				C153.3,648.7,151.1,650.9,148.4,650.9z"/>
			<path class="st30" d="M147.6,718h-5.7c-2.1,0-3.8-1.7-3.8-3.8v-156c0-2.1,1.7-3.8,3.8-3.8h5.7c2.1,0,3.8,1.7,3.8,3.8v156
				C151.3,716.3,149.6,718,147.6,718z"/>
			<g>
				<path class="st35" d="M149.2,506.3v18.1c0,0.7-0.6,1.3-1.3,1.3h-6.5c-0.7,0-1.3-0.6-1.3-1.3v-18.1H149.2 M151.7,503.3h-14.5
					c0,0,0,0,0,0v21.1c0,2.3,1.9,4.3,4.3,4.3h6.5c2.3,0,4.3-1.9,4.3-4.3v-20.6C152.2,503.6,152,503.3,151.7,503.3L151.7,503.3z"/>
			</g>
			<g>
				<path class="st34" d="M152.2,470.2c-0.3,0-0.5,0-0.8,0l0.1-6.4c4.5,0,9.5-0.7,10.4-1.6c2.6-2.8,5.3-9.3,8-15.5
					c5.1-11.8,9.5-21.9,16.6-21.9c8.3,0,22.6-0.3,22.7-0.3l0.1,6.4c-0.1,0-14.5,0.3-22.8,0.3c-2.9,0-8,11.8-10.8,18.1
					c-3,7-5.9,13.6-9.2,17.2C165.7,467.7,162.2,470.2,152.2,470.2z"/>
			</g>
			<path class="st35" d="M218.5,431.8h-22.3c-1.2,0-2.2-1-2.2-2.2v-3.3c0-1.2,1-2.2,2.2-2.2h22.3c1.2,0,2.2,1,2.2,2.2v3.3
				C220.7,430.9,219.7,431.8,218.5,431.8z"/>
			<g>
				<g>
					<path class="st34" d="M137.6,470.2c-10,0-13.4-2.6-14.5-3.7c-3.3-3.6-6.1-10.2-9.2-17.2c-2.7-6.3-7.8-18.1-10.8-18.1
						c-8.4,0-22.7-0.3-22.8-0.3l0.1-6.4c0.1,0,14.4,0.3,22.7,0.3c7.1,0,11.5,10.2,16.6,21.9c2.7,6.2,5.5,12.6,8.1,15.5
						c0.9,0.9,6,1.7,10.4,1.6l0.1,6.4C138.1,470.2,137.8,470.2,137.6,470.2z"/>
				</g>
				<path class="st35" d="M71.4,431.8h22.3c1.2,0,2.2-1,2.2-2.2v-3.3c0-1.2-1-2.2-2.2-2.2H71.4c-1.2,0-2.2,1-2.2,2.2v3.3
					C69.2,430.9,70.1,431.8,71.4,431.8z"/>
			</g>
			<path class="st35" d="M167.2,511.2h-44.5c-6.8,0-12.4-5.6-12.4-12.4l3.1-38.8c0-6.8,5.6-12.4,12.4-12.4h38.3
				c6.8,0,12.4,5.6,12.4,12.4l3.1,38.8C179.6,505.7,174,511.2,167.2,511.2z"/>
			<g>
				<g>
					<path class="st30" d="M159.7,660.8c-1.3,0-2.4-1.1-2.4-2.4v-25c0-1.3,1.1-2.4,2.4-2.4s2.4,1.1,2.4,2.4v25
						C162.1,659.8,161,660.8,159.7,660.8z"/>
				</g>
				<g>
					<path d="M161.6,678.3h-3.9c-0.9,0-1.7-0.7-1.7-1.7V660c0-0.9,0.7-1.7,1.7-1.7h3.9c0.9,0,1.7,0.7,1.7,1.7v16.6
						C163.2,677.5,162.5,678.3,161.6,678.3z"/>
				</g>
			</g>
			<g>
				<g>
					<path class="st30" d="M128.9,609.3c1.3,0,2.4,1.1,2.4,2.4v25c0,1.3-1.1,2.4-2.4,2.4s-2.4-1.1-2.4-2.4v-25
						C126.5,610.3,127.6,609.3,128.9,609.3z"/>
				</g>
				<g>
					<path d="M127,591.9h3.9c0.9,0,1.7,0.7,1.7,1.7v16.6c0,0.9-0.7,1.7-1.7,1.7H127c-0.9,0-1.7-0.7-1.7-1.7v-16.6
						C125.3,592.6,126.1,591.9,127,591.9z"/>
				</g>
			</g>
			<g>
				<path class="st3" d="M161.6,503.3h-33.3c-5.1,0-9.2-4.1-9.2-9l2.3-28.3c0-5,4.2-9,9.2-9h28.7c5.1,0,9.2,4.1,9.2,9l2.3,28.3
					C170.9,499.2,166.7,503.3,161.6,503.3z"/>
				<g>
					<path class="st13" d="M158.3,485.3c-0.3-0.1-0.6-0.2-0.7-0.3c-0.1-0.2-0.2-0.3-0.2-0.5c0-0.2,0.1-0.4,0.1-0.6
						c0.1-0.2,0.2-0.4,0.4-0.6c0.1-0.2,0.3-0.3,0.4-0.5c0.2-0.1,0.3-0.2,0.4-0.3c0.1-0.1,0.2-0.2,0.4-0.2c0.2-0.1,0.3-0.2,0.5-0.2
						c0.2-0.1,0.3-0.1,0.5-0.2c0.1,0,0.3-0.1,0.4-0.1c0.5,0,0.8,0.1,0.8,0.6c0,0.3-0.4,0.4-0.9,0.8c-0.3,0.2-0.4,0.5-0.4,0.5
						c1,0.4,2.3,0.6,3.8,0.6c0.2,0,0.3,0,0.4,0c0.1,0,0.1,0,0.1,0c0-0.2,0-0.5-0.1-0.9c-0.1-0.3-0.2-0.6-0.4-1
						c-0.1-0.3-0.7-1.7-0.9-2.1c-0.2-0.3-0.3-0.6-0.4-0.8c-0.2,0.1-0.4,0.2-0.7,0.4c-0.3,0.1-0.5,0.2-0.8,0.3
						c-0.3,0.1-0.6,0.1-0.9,0.2c-0.3,0-0.6,0.1-0.9,0.1c-0.5,0-1-0.1-1.5-0.1c-0.4-0.1-0.8-0.2-1.2-0.4c-0.3-0.2-0.6-0.4-0.8-0.6
						c-0.2-0.2-0.3-0.5-0.3-0.8c0-0.3,0.1-0.7,0.2-1.1l0,0c0.2-0.6,0.6-1.1,1-1.5c0.4-0.5,0.9-0.9,1.4-1.2c0.5-0.3,1-0.6,1.6-0.8
						c0.5-0.2,1-0.3,1.5-0.3c0.2,0,0.5,0,0.8,0.1c0.3,0.1,0.5,0.2,0.7,0.3c0.2,0.1,0.4,0.3,0.5,0.5c0.1,0.2,0.2,0.5,0.3,0.7
						c0,0.3,0,0.5,0.1,0.6c0,0.2,0,0.3,0,0.5c0,0.2,0.1,0.3,0.1,0.5c0.1,0.2,0.2,0.4,0.3,0.7c0.2,0.4,0.4,0.7,0.6,1.1
						c0.2,0.4,0.4,0.8,0.6,1.2c0.2,0.4,0.8,1.9,1,2.3c0.2,0.4,0.3,0.8,0.4,1.3c0,0,0,0.1,0,0.1c0,0,0,0.1,0,0.1
						c0,0.2-0.1,0.5-0.2,0.8c-0.1,0.3-0.3,0.5-0.5,0.8c-0.2,0.2-0.4,0.4-0.7,0.6c-0.2,0.2-0.5,0.3-0.7,0.3c-0.1,0-0.2,0-0.4,0
						c-0.1,0-0.3,0-0.4,0c-0.5,0-1-0.1-1.5-0.1c-0.5-0.1-1.1-0.2-1.6-0.3c-0.5-0.1-1-0.2-1.4-0.3
						C158.8,485.4,158.5,485.3,158.3,485.3 M160,478.6c0.3-0.1,0.5-0.2,0.7-0.3c0.2-0.1,0.3-0.2,0.4-0.3c0.1-0.1,0.2-0.2,0.2-0.4
						c0-0.1,0.3-1.9,0.3-1.9c0-0.1-0.1-0.2-0.2-0.3c-0.1-0.1-0.2-0.1-0.3-0.1c-0.2,0-0.4,0-0.6,0.1c-0.2,0.1-0.4,0.2-0.7,0.4
						c-0.2,0.2-0.4,0.3-0.7,0.5c-0.2,0.2-0.4,0.4-0.6,0.6c-0.2,0.2-0.3,0.4-0.4,0.6c-0.1,0.2-0.2,0.4-0.2,0.6c0,0.1,0,0.2,0.1,0.3
						c0.1,0.1,0.2,0.1,0.3,0.2c0.1,0,0.2,0.1,0.4,0.1c0.1,0,0.3,0,0.4,0c0.2,0,0.3,0,0.5,0C159.7,478.7,159.9,478.7,160,478.6"/>
					<path class="st14" d="M125.8,470.9C125.8,470.9,125.8,470.9,125.8,470.9c0-0.1,0-0.1,0-0.1
						C125.8,470.8,125.8,470.9,125.8,470.9C125.8,470.9,125.8,470.9,125.8,470.9 M128.7,479.5c-0.1-0.1-0.2,0.1-0.2,0.1
						c0,0-0.1,0.1-0.1,0.1c0,0-0.1,0.1-0.1,0.1c-0.2,0.2-0.5,0.3-0.6,0.3c-0.1,0-0.2,0-0.4,0c-0.3,0.1-0.3-0.1-0.3-0.1
						c0-0.2,0.1-0.3,0.1-0.3c0-0.1,0-0.1,0-0.2c0-0.2,0-0.3,0-0.5c0-0.2-0.1-0.4-0.2-0.7l0-0.1v0c-0.1-0.3-0.2-0.6-0.3-1
						c-0.1-0.3-0.2-0.7-0.3-1v0c-0.1-0.2-0.1-0.4-0.2-0.7c-0.1-0.3-0.1-0.7-0.2-1.1c-0.1-0.4-0.1-0.7-0.2-1
						c-0.1-0.3-0.1-0.6-0.2-0.7c0-0.1-0.1-0.2-0.1-0.4c0-0.2-0.1-0.3-0.1-0.5c0-0.2-0.1-0.3-0.1-0.5c0-0.1,0-0.3,0-0.3
						c0-0.3,0.1-0.4,0.2-0.5c0.1-0.1,0.4-0.3,0.6-0.3c0.1-0.1,0.6-0.2,1.1-0.1c0.1,0,0.5,0.1,0.6,0.4c0.1,0.3,0.2,0.8,0.3,1.2
						c0,0,0,0.1,0.1,0.2c0,0.1,0.1,0.2,0.1,0.4c0,0.2,0.1,0.5,0.1,0.8c0,0.3,0.1,0.8,0.2,1.4v0l0.1,0.5c0,0.2,0.1,0.5,0.1,0.7
						c0,0.2,0.1,0.4,0.1,0.6c0,0,0.1-0.1,0.1-0.1c0.1,0,0.1-0.1,0.2-0.1l0,0c0.1-0.1,0.2-0.2,0.3-0.3c0.1-0.1,0.2-0.2,0.3-0.2
						c0.1-0.1,0.2-0.1,0.2-0.2c0.1-0.1,0.2-0.2,0.3-0.3c0.1-0.1,0.2-0.1,0.3-0.2c0.2-0.1,0.3-0.2,0.5-0.3c0.2-0.1,0.3-0.2,0.4-0.3
						c0.1-0.1,0.2-0.2,0.3-0.2c0.2-0.1,0.3-0.2,0.5-0.3c0.2-0.1,0.6-0.4,0.7-0.4c0.4-0.1,0.7-0.1,1,0c0.1,0,0.1,0.1,0.1,0.1
						c0.1,0.1,0.3,0.2,0.4,0.3c0.1,0.1,0.2,0.3,0.3,0.4c0.1,0.2,0.2,0.3,0.2,0.5c0.1,0.1,0.1,0.3,0.2,0.4c0.1,0.3,0.2,0.7,0.2,1
						c0,0.3,0.1,0.6,0.1,0.8c0,0.4,0,0.7-0.1,0.9c-0.1,0.3-0.1,0.5-0.2,0.8c-0.1,0.2-0.2,0.5-0.3,0.7c-0.1,0.2-0.2,0.4-0.3,0.6
						c-0.1,0.2-0.2,0.3-0.3,0.4c-0.1,0.1-0.2,0.2-0.4,0.3c-0.1,0.1-0.3,0.2-0.4,0.4c-0.1,0.1-0.5,0.5-0.5,0.5c0,0-0.2,0.3-0.4,0.4
						c-0.1,0.1-0.3,0.1-0.4,0.1c-0.2,0-0.3,0-0.5-0.1c-0.2-0.1-0.4-0.1-0.6-0.2c-0.2-0.1-0.4-0.2-0.5-0.3c-0.2-0.1-0.3-0.2-0.4-0.3
						c0,0-0.1-0.1-0.1-0.1C129.2,480.2,128.8,479.7,128.7,479.5 M132.2,479.3L132.2,479.3L132.2,479.3z M132.2,479.3
						c0.4-0.1,0.7-0.3,0.8-0.6c0.2-0.3,0.2-0.6,0.2-1c0-0.2,0-0.4-0.1-0.6c0-0.2-0.1-0.4-0.1-0.6c-0.1-0.2-0.1-0.4-0.2-0.6
						c-0.1-0.2-0.2-0.5-0.2-0.5c-0.1-0.2-0.2-0.3-0.3-0.3c-0.1,0-0.3,0-0.4,0.1c-0.2,0.1-0.3,0.1-0.4,0.2c-0.1,0.1-0.3,0.2-0.4,0.3
						c-0.1,0.1-0.2,0.2-0.2,0.2c-0.1,0.2-0.2,0.3-0.3,0.4c-0.1,0.1-0.3,0.3-0.3,0.3c-0.1,0.1-0.1,0.1-0.1,0.2c0,0.1,0.1,0.2,0.2,0.4
						c0.1,0.2,0.3,0.4,0.5,0.6c0.2,0.2,0.4,0.4,0.6,0.6C131.7,478.9,132.2,479.3,132.2,479.3"/>
					<path class="st15" d="M136.4,480.9c-0.3-0.6-0.5-1-0.7-1.5c-0.2-0.4-0.3-0.8-0.4-1.3c-0.1-0.4-0.1-0.9-0.2-1.3
						c0-0.5-0.1-1,0-1.7c0-0.3,0-0.5,0-0.6c0-0.2,0.1-0.3,0.1-0.4c0.1-0.3,0.4-0.4,0.4-0.4c0.2-0.1,0.4-0.1,0.6-0.1
						c0.4,0,0.7,0.1,0.9,0.3c0.2,0.2,0.2,0.4,0.3,0.7c0,0.3,0,0.7,0,1.2c0,0.5,0,1.1,0.1,1.7c0,0.3,0.1,0.6,0.2,0.9
						c0.1,0.3,0.1,0.6,0.2,0.8c0.1,0.3,0.1,0.5,0.2,0.7c0,0.2,0.1,0.4,0.1,0.5c0,0.2,0,0.2-0.1,0.4
						C138,481.1,136.7,481.4,136.4,480.9"/>
					<path d="M141.7,481.5c-0.8,0-1.5-0.1-2.1-0.4c-0.5-0.2-0.9-0.5-1.3-0.8c-0.3-0.3-0.5-0.7-0.6-1c-0.1-0.4-0.2-0.7-0.2-1
						c0-0.3,0.1-0.6,0.2-0.9c0.1-0.3,0.3-0.6,0.4-0.9c0.2-0.3,0.4-0.6,0.6-0.8c0.2-0.3,0.4-0.5,0.7-0.6c0.2-0.1,0.4-0.2,0.6-0.4
						c0.2-0.1,0.7-0.4,0.7-0.4c0.2-0.1,0.4-0.2,0.6-0.3c0.2-0.1,0.5-0.1,0.7-0.1c0.2,0,0.4,0,0.7,0.1c0.3,0.1,0.6,0.2,0.9,0.4
						c0.3,0.2,0.6,0.4,0.8,0.7c0.2,0.3,0.4,0.6,0.4,1c0,0.2-0.4,0.6-1.2,0.6c-0.6,0-0.9-0.2-1.2-0.3c-0.2-0.2-0.5-0.4-0.7-0.8
						c0-0.1-0.1-0.1-0.1-0.1c-0.1,0-0.1,0-0.2,0.1c-0.1,0.1-0.4,0.5-0.5,0.7c-0.1,0.2-0.2,0.3-0.3,0.5c-0.1,0.2-0.2,0.3-0.2,0.5
						c-0.1,0.2-0.1,0.3-0.1,0.5c0,0.2,0,0.3,0.1,0.5c0.1,0.2,0.4,1.3,1.4,1.4c0.2,0.1,0.4,0.1,0.6,0.1c0.2,0,0.4,0,0.6,0
						c0.4,0,0.7-0.1,1.1-0.2c0.4-0.1,0.7-0.3,0.9-0.4c0.2-0.2,0.6-0.2,0.7-0.1c0.2,0.1,0.3,0.1,0.4,0.2c0.2,0.1,0.3,0.3,0.4,0.6
						c-0.4,0.4-0.7,0.7-1.1,0.9c-0.4,0.2-0.8,0.4-1.2,0.5c-0.4,0.1-0.8,0.2-1.2,0.2C142.5,481.5,142.1,481.5,141.7,481.5"/>
					<path class="st13" d="M146.6,481c-0.3-0.6-0.5-1-0.7-1.5c-0.2-0.4-0.3-0.8-0.4-1.3c-0.1-0.4-0.1-0.9-0.2-1.3c0-0.5-0.1-1,0-1.7
						c0-0.3,0-0.5,0-0.6c0-0.2,0.1-0.3,0.1-0.4c0.1-0.2,0.4-0.4,0.4-0.4c0.2-0.1,0.4-0.1,0.6-0.1c0.4,0,0.7,0.1,0.9,0.3
						c0.2,0.2,0.2,0.4,0.3,0.7c0,0.3,0,0.7,0,1.2c0,0.5,0,1.1,0.1,1.7c0,0.3,0.1,0.6,0.2,0.9c0.1,0.3,0.1,0.6,0.2,0.8
						c0.1,0.3,0.1,0.5,0.2,0.7c0,0.2,0.1,0.4,0.1,0.5C148.3,481.2,147,481.9,146.6,481 M146.6,473.1c-0.2,0.1-0.5,0.1-0.7,0.1
						c-0.3,0-0.5-0.1-0.6-0.2c-0.1-0.2-0.2-0.5-0.2-0.9c0,0,0-0.1,0-0.2c0-0.1,0-0.4,0.4-0.5c0.1,0,0.6-0.2,0.7-0.2
						c0.1,0,0.1,0,0.3,0.1c0.1,0,0.1,0,0.1,0c0,0,0.1,0,0.1,0c0,0,0.1,0,0.1,0c0.1,0,0.2,0,0.3,0.1c0.1,0.1,0.1,0.2,0.1,0.3
						c0,0.1,0.1,0.2,0.1,0.3c0,0.1,0.1,0.2,0.1,0.2C147.5,472.7,146.8,473,146.6,473.1"/>
					<path d="M155.1,481.6c-0.1-0.1-0.8-1.1-1-1.4c-0.2-0.4-0.4-0.7-0.5-1.1c-0.1-0.3-0.3-0.7-0.4-1c-0.1-0.3-0.2-0.6-0.4-0.8
						c-0.1,0.3-0.1,0.6-0.2,1c0,0.4-0.1,0.7-0.1,1.1c0,0.4-0.1,0.7-0.1,1c0,0.3,0,0.5-0.1,0.8c0,0.2-0.2,0.2-0.3,0.2
						c-0.1,0-0.2,0-0.3,0c-0.1,0-1.1,0.1-1.3,0c-0.2-0.1-0.4-0.3-0.7-0.7c-0.2-0.3-0.5-0.7-0.7-1.1c-0.2-0.4-0.4-0.9-0.6-1.4
						c-0.2-0.5-0.4-0.9-0.5-1.4c-0.2-0.4-0.3-0.8-0.4-1.2c-0.1-0.3-0.1-0.6-0.2-0.7c0-0.2,0.1-0.3,0.2-0.3c0.1-0.1,0.2-0.1,0.4-0.2
						c0.2,0,0.3,0,0.5,0c0.2,0,0.3,0,0.4,0c0.1,0,0.2,0,0.4,0c0.1,0,0.2,0,0.4,0c0.1,0,0.1,0,0.2,0.1c0,0.1,0.1,0.2,0.1,0.4
						c0.1,0.2,0.1,0.4,0.2,0.6c0.1,0.2,0.1,0.4,0.2,0.5c0.1,0.2,0.1,0.3,0.1,0.3c0.1-0.4,0.3-0.7,0.4-1.1c0.2-0.4,0.8-1.5,0.8-1.6
						c0.1-0.1,0.2-0.2,0.3-0.2c0.3-0.1,0.9-0.2,1.1-0.2c0.1,0,0.7,0,0.9,0.3c0.3,0.5,0.6,1.4,0.7,1.9c0.2,0.5,0.3,1.1,0.5,1.6
						c0.2,0.5,0.4,1.1,0.6,1.6c0.2,0.5,0.8,1.7,0.8,1.8c0,0.1,0.1,0.2,0.1,0.3c0,0.1,0.1,0.2,0.1,0.3c0,0.1,0,0.2,0,0.2
						c0,0.1,0,0.1-0.1,0.2c0,0.1-0.1,0.2-0.2,0.3c-0.1,0.1-0.2,0.2-0.3,0.2c-0.1,0.1-0.3,0.1-0.4,0.1
						C155.5,482,155.2,481.7,155.1,481.6"/>
					<path class="st15" d="M136.4,472.7c-0.3,0.1-0.5,0.1-0.8,0.1c-0.3,0-0.5-0.1-0.7-0.2c-0.1-0.2-0.2-0.5-0.2-0.9c0,0,0-0.1,0-0.2
						c0-0.1,0-0.4,0.4-0.5c0.1,0,0.6-0.1,0.7-0.1c0.3,0,0.7,0,0.7,0c0.1,0,0.2,0,0.3,0.1c0.1,0.1,0.1,0.2,0.2,0.3
						c0,0.1,0.1,0.2,0.1,0.3c0,0.1,0.1,0.2,0.1,0.2C137.3,472.3,136.7,472.6,136.4,472.7"/>
				</g>
			</g>
		</g>
		<path class="st15" d="M171.9,525.1c-0.1-2.9-2.5-5.2-5.5-5.2h-43.3c-2.9,0-5.3,2.3-5.5,5.2l-9.2,185.4h71.9L171.9,525.1z
			 M153.1,688c0,4.7-3.8,8.5-8.5,8.5c-4.7,0-8.5-3.8-8.5-8.5V548c0-4.7,3.8-8.5,8.5-8.5c4.7,0,8.5,3.8,8.5,8.5V688z"/>
	</g>
	<g>
		<path class="st1" d="M349.2,358.4c0-0.7-0.5-1.3-1.1-1.6l-42.3-18.5c-0.7-0.3-1.1-1-1.1-1.7V133.2c28.9-3.7,51.2-28.4,51.2-58.2
			c0-29.8-22.1-54.3-50.8-58.2h0.5V6.1c0-2.5-2.1-4.6-4.6-4.6h-7.7c-2.5,0-4.6,2.1-4.6,4.6v10.6h0.5c-28.7,3.9-50.8,28.4-50.8,58.2
			c0,29.9,22.3,54.6,51.2,58.2v202.7c0,1-0.8,1.9-1.9,1.9h-10.4c-1,0-1.8,0.8-1.9,1.8l-7.2,368.8c0,1,0.8,1.9,1.9,1.9h90.4
			c1.1,0,1.9-0.9,1.9-1.9L349.2,358.4z"/>
		<circle class="st3" cx="297.2" cy="74.9" r="56.5"/>
		<path class="st15" d="M271.6,710.2h89c1.1,0,1.9-0.9,1.9-1.9l-13.2-349.8c0-0.7-0.5-1.3-1.1-1.6l-42.3-18.5l-18-0.6H279
			L271.6,710.2"/>
		<g>
			<circle class="st80" cx="273.3" cy="86.5" r="14.4"/>
			<circle class="st80" cx="323.7" cy="86.5" r="14.4"/>
			<circle class="st15" cx="323.7" cy="86.5" r="3.8"/>
			<circle class="st15" cx="273.3" cy="86.5" r="3.8"/>
			<circle class="st15" cx="293.6" cy="86.1" r="1.7"/>
			<line class="st81" x1="280.9" y1="56.9" x2="289.5" y2="56.9"/>
			<circle class="st80" cx="293.6" cy="86.1" r="4.3"/>
			<path class="st81" d="M304.2,86.5c0-3.5,0.9-6.7,2.5-9.6c1.9-3.4,4.8-6.2,8.3-7.9"/>
			<path class="st81" d="M298.8,48.9h4.5c0,0,1.9,0,2.7,1.7s16.6,33.5,16.6,33.5"/>
			<path class="st81" d="M285.5,56.9l6.7,24.9c-2.1-8.5-9.7-14.8-18.9-14.8c-7.3,0-13.6,4-16.9,9.9"/>
			<line class="st81" x1="288.3" y1="69" x2="274" y2="85.6"/>
			<line class="st81" x1="312.5" y1="64.4" x2="296.6" y2="82.5"/>
			<path class="st80" d="M319,65.4c0.2,0.4,0.7,0.7,1.2,0.7h7.1c0.7,0,1.3-0.6,1.3-1.3v-9.8c0-0.7-0.6-1.3-1.3-1.3h-11.8
				c-0.4,0-0.9,0.2-1.1,0.6c-0.2,0.4-0.3,0.8-0.1,1.3L319,65.4z"/>
		</g>
		<g>
			<path class="st5" d="M340.1,692.9c-0.5-0.1-0.9-0.3-1.1-0.5c-0.2-0.2-0.3-0.5-0.3-0.9c0-0.3,0.1-0.6,0.2-0.9
				c0.2-0.3,0.4-0.6,0.6-0.9c0.2-0.3,0.5-0.5,0.7-0.8c0.3-0.2,0.5-0.4,0.6-0.5c0.2-0.1,0.4-0.2,0.7-0.4c0.3-0.1,0.5-0.3,0.8-0.4
				c0.3-0.1,0.5-0.2,0.8-0.3c0.2-0.1,0.4-0.1,0.6-0.1c0.8,0,1.3,0.2,1.3,0.9c0,0.4-0.6,0.7-1.4,1.2c-0.5,0.4-0.6,0.9-0.6,0.9
				c1.7,0.7,3.8,1,6.3,1.1c0.3,0,0.6,0,0.7,0c0.1,0,0.2,0,0.2,0c0-0.4-0.1-0.9-0.2-1.4c-0.2-0.5-0.4-1.1-0.6-1.6
				c-0.2-0.6-1.2-2.9-1.5-3.4c-0.3-0.5-0.5-1-0.7-1.4c-0.3,0.2-0.7,0.4-1.1,0.6c-0.4,0.2-0.9,0.3-1.4,0.5c-0.5,0.1-1,0.2-1.5,0.3
				c-0.5,0.1-1,0.1-1.5,0.1c-0.9,0-1.7-0.1-2.4-0.2c-0.7-0.2-1.4-0.4-1.9-0.7c-0.5-0.3-1-0.6-1.3-1c-0.3-0.4-0.5-0.8-0.5-1.3
				c0-0.5,0.1-1.1,0.4-1.7l0,0c0.4-0.9,0.9-1.8,1.6-2.5c0.7-0.8,1.5-1.4,2.3-2c0.8-0.5,1.7-1,2.6-1.3c0.9-0.3,1.7-0.5,2.5-0.4
				c0.4,0,0.8,0.1,1.3,0.2c0.4,0.1,0.8,0.3,1.2,0.5c0.4,0.2,0.7,0.5,0.9,0.9c0.2,0.3,0.4,0.7,0.5,1.2c0,0.4,0.1,0.8,0.1,1.1
				c0,0.3,0,0.5,0.1,0.8c0.1,0.2,0.1,0.5,0.2,0.8c0.1,0.3,0.3,0.7,0.6,1.1c0.3,0.6,0.6,1.2,1,1.8c0.3,0.6,0.7,1.3,1,2
				c0.3,0.7,1.3,3.1,1.6,3.8c0.3,0.7,0.5,1.4,0.6,2.1c0,0.1,0,0.1,0,0.2c0,0.1,0,0.1,0,0.2c0,0.4-0.1,0.8-0.4,1.3
				c-0.2,0.4-0.5,0.9-0.9,1.3c-0.3,0.4-0.7,0.7-1.1,1c-0.4,0.3-0.8,0.5-1.1,0.5c-0.2,0-0.4,0.1-0.6,0.1c-0.2,0-0.5,0-0.7,0
				c-0.8,0-1.6-0.1-2.5-0.2c-0.9-0.1-1.8-0.3-2.6-0.5c-0.8-0.2-1.6-0.3-2.3-0.5C341,693.1,340.5,692.9,340.1,692.9 M343,681.9
				c0.4-0.2,0.8-0.4,1.1-0.5c0.3-0.2,0.5-0.3,0.6-0.5c0.2-0.2,0.3-0.4,0.3-0.6c0.1-0.2,0.4-3.1,0.4-3.2c0-0.2-0.1-0.3-0.3-0.4
				c-0.2-0.1-0.4-0.2-0.5-0.2c-0.3,0-0.6,0.1-0.9,0.2c-0.3,0.1-0.7,0.3-1.1,0.6c-0.4,0.3-0.7,0.5-1.1,0.9c-0.4,0.3-0.7,0.7-1,1
				c-0.3,0.3-0.5,0.7-0.7,1c-0.2,0.3-0.2,0.7-0.3,0.9c0,0.2,0,0.3,0.1,0.4c0.1,0.1,0.2,0.2,0.4,0.3c0.2,0.1,0.4,0.1,0.6,0.2
				c0.2,0,0.5,0.1,0.7,0.1c0.3,0,0.5,0,0.8-0.1C342.6,682.1,342.8,682,343,681.9"/>
			<path class="st5" d="M286.7,669.3C286.7,669.2,286.6,669.2,286.7,669.3c-0.1-0.1-0.1-0.1-0.1-0.2
				C286.6,669.1,286.6,669.1,286.7,669.3C286.6,669.2,286.7,669.2,286.7,669.3 M291.4,683.4c-0.1-0.1-0.3,0.1-0.3,0.2
				c-0.1,0.1-0.1,0.1-0.2,0.2c-0.1,0.1-0.1,0.1-0.2,0.2c-0.4,0.4-0.9,0.5-1.1,0.5c-0.1,0-0.4,0-0.6,0.1c-0.6,0.1-0.5-0.1-0.5-0.2
				c0.1-0.3,0.1-0.4,0.1-0.5c0-0.1,0-0.2,0-0.3c0-0.3,0-0.6-0.1-0.9c-0.1-0.3-0.1-0.7-0.3-1.1l0-0.2v0c-0.1-0.5-0.3-1.1-0.5-1.6
				c-0.2-0.6-0.3-1.1-0.5-1.7v0c-0.1-0.3-0.2-0.7-0.3-1.2c-0.1-0.6-0.2-1.1-0.2-1.7c-0.1-0.6-0.2-1.2-0.3-1.7
				c-0.1-0.5-0.2-0.9-0.3-1.1c-0.1-0.2-0.1-0.4-0.2-0.7c-0.1-0.3-0.1-0.5-0.2-0.8c-0.1-0.3-0.1-0.5-0.1-0.8c0-0.2,0-0.4,0-0.6
				c0-0.5,0.2-0.7,0.3-0.9c0.2-0.2,0.7-0.5,1-0.6c0.2-0.1,0.9-0.3,1.8-0.2c0.2,0,0.9,0.2,1,0.6c0.1,0.4,0.3,1.3,0.5,1.9
				c0,0.1,0.1,0.2,0.1,0.4c0,0.1,0.1,0.4,0.1,0.7c0,0.3,0.1,0.8,0.2,1.4c0.1,0.6,0.2,1.3,0.3,2.3v0l0.1,0.8c0.1,0.4,0.1,0.8,0.2,1.2
				c0.1,0.4,0.1,0.7,0.1,1c0-0.1,0.1-0.1,0.2-0.2c0.1-0.1,0.2-0.1,0.3-0.2l0,0c0.2-0.2,0.4-0.4,0.5-0.5c0.2-0.1,0.3-0.3,0.4-0.4
				c0.1-0.1,0.2-0.2,0.4-0.4c0.1-0.1,0.3-0.3,0.5-0.5c0.1-0.1,0.3-0.2,0.5-0.4c0.2-0.2,0.5-0.4,0.8-0.5c0.3-0.2,0.5-0.4,0.7-0.5
				c0.2-0.2,0.4-0.3,0.5-0.3c0.3-0.2,0.5-0.4,0.8-0.5c0.3-0.2,1-0.6,1.2-0.6c0.6-0.2,1.2-0.1,1.7,0.1c0.1,0.1,0.2,0.2,0.2,0.2
				c0.2,0.1,0.4,0.3,0.6,0.5c0.2,0.2,0.4,0.4,0.5,0.7c0.2,0.2,0.3,0.5,0.4,0.7c0.1,0.2,0.2,0.5,0.3,0.7c0.1,0.4,0.3,1.1,0.4,1.6
				c0.1,0.5,0.1,0.9,0.1,1.3c0,0.6-0.1,1.1-0.2,1.6c-0.1,0.5-0.2,0.9-0.4,1.3c-0.2,0.4-0.3,0.8-0.5,1.1c-0.2,0.3-0.4,0.7-0.5,1.1
				c-0.2,0.3-0.3,0.5-0.5,0.7c-0.2,0.2-0.4,0.4-0.6,0.5c-0.2,0.2-0.5,0.4-0.7,0.6c-0.2,0.2-0.8,0.9-0.8,0.9c0,0-0.4,0.5-0.6,0.6
				c-0.2,0.1-0.5,0.2-0.7,0.2c-0.3,0-0.5-0.1-0.9-0.2c-0.3-0.1-0.6-0.2-0.9-0.4c-0.3-0.1-0.6-0.3-0.8-0.5c-0.3-0.2-0.5-0.3-0.6-0.4
				c0,0-0.1-0.1-0.2-0.2C292.3,684.6,291.6,683.7,291.4,683.4 M297.2,683L297.2,683L297.2,683z M297.2,683c0.6-0.2,1.1-0.5,1.3-0.9
				c0.2-0.4,0.4-1,0.4-1.6c0-0.3,0-0.7-0.1-1c-0.1-0.4-0.1-0.7-0.2-1c-0.1-0.3-0.2-0.6-0.3-0.9c-0.1-0.3-0.4-0.7-0.4-0.7
				c-0.2-0.3-0.3-0.4-0.4-0.4c-0.2,0-0.4,0-0.7,0.2c-0.2,0.1-0.5,0.2-0.7,0.4c-0.2,0.1-0.4,0.3-0.6,0.5c-0.2,0.1-0.3,0.3-0.4,0.4
				c-0.2,0.3-0.4,0.5-0.5,0.7c-0.2,0.2-0.5,0.6-0.5,0.6c-0.1,0.1-0.1,0.2-0.1,0.3c0,0.1,0.1,0.4,0.3,0.7c0.2,0.3,0.5,0.6,0.8,0.9
				c0.3,0.3,0.7,0.7,1,1C296.3,682.3,297.2,683,297.2,683"/>
			<path class="st3" d="M304.2,685.7c-0.4-0.9-0.8-1.7-1.1-2.4c-0.3-0.7-0.5-1.4-0.6-2.1c-0.1-0.7-0.2-1.4-0.3-2.2
				c-0.1-0.8-0.1-1.7-0.1-2.7c0-0.4,0-0.8,0.1-1c0-0.3,0.1-0.5,0.2-0.7c0.2-0.5,0.7-0.6,0.7-0.6c0.3-0.1,0.6-0.1,0.9-0.1
				c0.7,0,1.2,0.1,1.4,0.4c0.3,0.3,0.4,0.7,0.5,1.2c0.1,0.5,0.1,1.2,0,2c0,0.8,0,1.8,0.2,2.8c0.1,0.5,0.1,1,0.3,1.4
				c0.1,0.5,0.2,0.9,0.3,1.4c0.1,0.4,0.2,0.8,0.3,1.2c0.1,0.3,0.1,0.6,0.1,0.8c0,0.3,0,0.4-0.1,0.6
				C306.7,686,304.7,686.6,304.2,685.7"/>
			<path class="st3" d="M312.9,686.6c-1.4,0-2.5-0.2-3.4-0.6c-0.9-0.4-1.6-0.8-2.1-1.3c-0.5-0.5-0.8-1.1-1-1.7
				c-0.2-0.6-0.3-1.1-0.3-1.6c0-0.5,0.1-1,0.3-1.5c0.2-0.5,0.4-1,0.7-1.5c0.3-0.5,0.6-0.9,1-1.3c0.4-0.4,0.7-0.8,1.1-1
				c0.3-0.2,0.6-0.4,0.9-0.6c0.3-0.2,1.1-0.7,1.1-0.7c0.3-0.2,0.7-0.4,1-0.5c0.4-0.1,0.8-0.2,1.2-0.2c0.3,0,0.6,0.1,1.1,0.2
				c0.5,0.1,1,0.3,1.5,0.6c0.5,0.3,0.9,0.6,1.3,1.1c0.4,0.4,0.6,1,0.7,1.7c0,0.3-0.7,1-2,1.1c-0.9,0-1.5-0.3-1.9-0.5
				c-0.4-0.3-0.8-0.7-1.1-1.2c-0.1-0.1-0.2-0.1-0.2-0.1c-0.1,0-0.2,0.1-0.3,0.2c-0.1,0.1-0.7,0.8-0.9,1.1c-0.2,0.3-0.4,0.5-0.5,0.8
				c-0.2,0.3-0.3,0.5-0.4,0.8c-0.1,0.3-0.2,0.6-0.2,0.9c0,0.3,0,0.6,0.1,0.9c0.1,0.3,0.6,2.1,2.3,2.4c0.3,0.1,0.7,0.1,1,0.2
				c0.3,0,0.6,0,0.9,0c0.6,0,1.2-0.1,1.8-0.3c0.6-0.2,1.1-0.4,1.5-0.7c0.4-0.3,1-0.3,1.2-0.2c0.3,0.1,0.4,0.2,0.7,0.4
				c0.3,0.2,0.5,0.5,0.6,0.9c-0.6,0.6-1.2,1.1-1.8,1.4c-0.6,0.3-1.3,0.6-2,0.8c-0.7,0.2-1.3,0.3-2,0.3
				C314.1,686.6,313.5,686.7,312.9,686.6"/>
			<path class="st5" d="M320.9,685.9c-0.4-0.9-0.8-1.7-1.1-2.4c-0.3-0.7-0.5-1.4-0.6-2.1c-0.1-0.7-0.2-1.4-0.3-2.2
				c-0.1-0.8-0.1-1.7-0.1-2.7c0-0.4,0-0.8,0.1-1c0-0.3,0.1-0.5,0.2-0.7c0.2-0.4,0.7-0.6,0.7-0.6c0.3-0.1,0.6-0.1,0.9-0.1
				c0.7,0,1.2,0.1,1.4,0.4c0.3,0.3,0.4,0.7,0.5,1.2c0.1,0.5,0.1,1.2,0,2c0,0.8,0,1.8,0.2,2.8c0.1,0.5,0.1,1,0.3,1.4
				c0.1,0.5,0.2,0.9,0.3,1.4c0.1,0.4,0.2,0.8,0.3,1.2c0.1,0.3,0.1,0.6,0.1,0.8C323.7,686.2,321.6,687.3,320.9,685.9 M320.9,672.9
				c-0.4,0.1-0.8,0.2-1.2,0.2c-0.5,0-0.8-0.1-1.1-0.4c-0.2-0.3-0.3-0.8-0.3-1.4c0-0.1,0-0.2,0-0.3c0-0.1,0.1-0.6,0.7-0.8
				c0.2,0,1-0.3,1.2-0.3c0.1,0,0.2,0.1,0.5,0.2c0.1,0.1,0.1,0.1,0.2,0c0.1,0,0.1,0,0.2-0.1c0.1,0,0.1,0,0.2,0c0.2,0,0.4,0.1,0.5,0.2
				c0.1,0.1,0.2,0.3,0.2,0.5c0.1,0.2,0.1,0.4,0.1,0.5c0,0.2,0.1,0.3,0.2,0.4C322.4,672.3,321.3,672.8,320.9,672.9"/>
			<path class="st3" d="M334.9,686.9c-0.2-0.2-1.3-1.8-1.6-2.4c-0.3-0.6-0.6-1.2-0.8-1.8c-0.2-0.6-0.5-1.1-0.7-1.6
				c-0.2-0.5-0.4-0.9-0.6-1.4c-0.1,0.5-0.2,1-0.3,1.6c-0.1,0.6-0.1,1.2-0.2,1.7c-0.1,0.6-0.1,1.2-0.2,1.7c0,0.5-0.1,0.9-0.1,1.3
				c0,0.3-0.4,0.3-0.5,0.3c-0.1,0-0.3,0-0.5,0c-0.2,0-1.8,0.1-2.1-0.1c-0.4-0.2-0.7-0.6-1.1-1.1c-0.4-0.5-0.7-1.2-1.1-1.9
				c-0.4-0.7-0.7-1.4-1-2.2c-0.3-0.8-0.6-1.6-0.9-2.3c-0.3-0.7-0.5-1.4-0.6-1.9c-0.2-0.6-0.2-1-0.3-1.2c0-0.3,0.1-0.5,0.3-0.6
				c0.2-0.1,0.4-0.2,0.7-0.3c0.2,0,0.5-0.1,0.8-0.1c0.3,0,0.5,0,0.7,0c0.2,0,0.4,0,0.6,0c0.2,0,0.4,0,0.6,0c0.1,0,0.2,0.1,0.3,0.2
				c0.1,0.2,0.1,0.4,0.2,0.6c0.1,0.3,0.2,0.6,0.3,0.9c0.1,0.3,0.2,0.6,0.3,0.8c0.1,0.3,0.2,0.4,0.2,0.6c0.2-0.6,0.4-1.2,0.7-1.8
				c0.3-0.6,1.2-2.4,1.4-2.6c0.1-0.2,0.3-0.3,0.6-0.3c0.4-0.1,1.4-0.4,1.8-0.4c0.1,0,1.1,0,1.6,0.5c0.6,0.8,0.9,2.3,1.2,3.2
				c0.3,0.9,0.5,1.8,0.8,2.7c0.3,0.9,0.6,1.8,0.9,2.7c0.3,0.9,1.3,2.8,1.3,2.9c0.1,0.2,0.1,0.3,0.2,0.5c0.1,0.2,0.1,0.3,0.1,0.5
				c0,0.2,0.1,0.3,0.1,0.3c0,0.1,0,0.2-0.1,0.3c-0.1,0.2-0.2,0.3-0.4,0.5c-0.2,0.1-0.3,0.3-0.5,0.4c-0.2,0.1-0.4,0.2-0.7,0.2
				C335.6,687.5,335.1,687.1,334.9,686.9"/>
			<path class="st3" d="M304.1,672.2c-0.4,0.1-0.8,0.2-1.3,0.2c-0.5,0-0.9-0.1-1.1-0.4c-0.2-0.3-0.4-0.8-0.4-1.5c0-0.1,0-0.2,0-0.3
				c0-0.1,0-0.7,0.7-0.9c0.2-0.1,1-0.2,1.2-0.2c0.5,0,1.2-0.1,1.2-0.1c0.2,0,0.4,0.1,0.5,0.2c0.1,0.1,0.2,0.3,0.3,0.5
				c0.1,0.2,0.1,0.4,0.2,0.6c0,0.2,0.1,0.3,0.2,0.4C305.6,671.5,304.6,672.1,304.1,672.2"/>
		</g>
		<g>
			<g>
				<path class="st3" d="M303.9,376.1c0.8,0.1,1.5,0.6,2,1.2c0.5,0.7,0.8,1.5,0.8,2.4c0,0.6-0.1,1.2-0.4,1.7c-0.3,0.5-0.6,1-1.1,1.3
					c-0.5,0.4-1,0.6-1.7,0.8c-0.7,0.2-1.4,0.3-2.2,0.3c-1,0-1.9-0.2-2.7-0.5c-0.8-0.3-1.5-0.8-2-1.5l1.5-1.9c0.4,0.4,0.8,0.8,1.3,1
					s1.1,0.4,1.8,0.4c0.8,0,1.5-0.2,1.9-0.5c0.4-0.3,0.7-0.8,0.7-1.5c0-0.7-0.3-1.2-0.8-1.6c-0.5-0.4-1.3-0.6-2.3-0.6h-0.6v-2h0.6
					c0.8,0,1.5-0.2,2-0.6c0.5-0.4,0.7-0.9,0.7-1.4c0-0.6-0.2-1-0.6-1.2c-0.4-0.3-0.9-0.4-1.5-0.4c-0.6,0-1.2,0.1-1.7,0.4
					s-0.9,0.7-1.2,1.2l-1.7-1.9c0.2-0.3,0.5-0.6,0.8-0.8c0.3-0.3,0.7-0.5,1.2-0.7c0.4-0.2,0.9-0.3,1.4-0.4c0.5-0.1,1-0.2,1.5-0.2
					c0.7,0,1.3,0.1,1.9,0.3c0.6,0.2,1.1,0.4,1.5,0.7c0.4,0.3,0.7,0.7,1,1.1c0.2,0.4,0.3,0.9,0.3,1.5c0,0.4-0.1,0.8-0.2,1.2
					c-0.1,0.4-0.3,0.7-0.5,1c-0.2,0.3-0.5,0.5-0.8,0.8S304.3,376,303.9,376.1z"/>
				<path class="st3" d="M318.9,379.3c0,0.7-0.1,1.3-0.4,1.8c-0.3,0.5-0.7,1-1.1,1.4c-0.5,0.4-1,0.7-1.7,0.9c-0.6,0.2-1.3,0.3-2,0.3
					s-1.4-0.1-2-0.3c-0.6-0.2-1.2-0.5-1.7-0.9c-0.5-0.4-0.8-0.9-1.1-1.4s-0.4-1.2-0.4-1.8c0-0.4,0.1-0.8,0.2-1.1s0.3-0.7,0.5-0.9
					s0.5-0.5,0.7-0.8c0.3-0.2,0.5-0.4,0.8-0.5c-0.5-0.2-0.9-0.6-1.3-1.1s-0.5-1-0.5-1.6c0-0.7,0.1-1.2,0.4-1.7
					c0.3-0.5,0.7-0.9,1.1-1.3c0.5-0.3,1-0.6,1.5-0.8c0.6-0.2,1.1-0.3,1.7-0.3c0.5,0,1.1,0.1,1.7,0.3c0.6,0.2,1.1,0.4,1.6,0.8
					c0.5,0.3,0.8,0.8,1.1,1.3c0.3,0.5,0.4,1.1,0.4,1.7c0,0.3,0,0.6-0.1,0.8c-0.1,0.3-0.2,0.5-0.4,0.8c-0.2,0.2-0.4,0.5-0.6,0.6
					c-0.2,0.2-0.5,0.3-0.7,0.5c0.3,0.1,0.6,0.3,0.9,0.6c0.3,0.2,0.5,0.5,0.7,0.8c0.2,0.3,0.4,0.6,0.5,1
					C318.9,378.5,318.9,378.9,318.9,379.3z M316.2,379.2c0-0.3-0.1-0.6-0.2-0.9c-0.1-0.3-0.3-0.5-0.6-0.7s-0.5-0.3-0.8-0.4
					c-0.3-0.1-0.6-0.1-0.9-0.1c-0.3,0-0.6,0.1-0.9,0.2c-0.3,0.1-0.6,0.2-0.8,0.4c-0.2,0.2-0.4,0.4-0.5,0.7c-0.1,0.3-0.2,0.6-0.2,0.9
					c0,0.3,0.1,0.6,0.2,0.9s0.3,0.5,0.6,0.7c0.2,0.2,0.5,0.3,0.8,0.4c0.3,0.1,0.6,0.2,0.9,0.2c0.3,0,0.6-0.1,0.9-0.2
					c0.3-0.1,0.6-0.3,0.8-0.4c0.2-0.2,0.4-0.4,0.5-0.7C316.1,379.8,316.2,379.5,316.2,379.2z M311.6,373.3c0,0.3,0.1,0.5,0.2,0.7
					s0.3,0.4,0.5,0.5c0.2,0.1,0.4,0.3,0.7,0.3c0.2,0.1,0.5,0.1,0.7,0.1c0.2,0,0.5,0,0.7-0.1c0.2-0.1,0.5-0.2,0.7-0.3
					s0.4-0.3,0.5-0.5c0.1-0.2,0.2-0.5,0.2-0.7c0-0.5-0.2-0.9-0.6-1.2s-0.9-0.4-1.5-0.4c-0.6,0-1,0.2-1.4,0.5
					C311.8,372.3,311.6,372.8,311.6,373.3z"/>
				<path class="st3" d="M320.5,374.2c0-0.7,0.1-1.4,0.4-2c0.3-0.6,0.6-1.1,1.1-1.6c0.5-0.5,1-0.8,1.7-1.1c0.6-0.3,1.3-0.4,2.1-0.4
					c0.8,0,1.6,0.1,2.2,0.4c0.7,0.3,1.2,0.7,1.7,1.3c0.5,0.6,0.8,1.3,1.1,2.1c0.3,0.8,0.4,1.8,0.4,2.8c0,1.3-0.1,2.5-0.4,3.5
					c-0.3,1-0.6,1.9-1.1,2.5c-0.5,0.7-1.1,1.2-1.8,1.6c-0.7,0.4-1.5,0.5-2.3,0.5c-0.9,0-1.8-0.2-2.5-0.6c-0.8-0.4-1.4-1-2-1.7
					l1.6-1.7c0.3,0.5,0.7,0.9,1.3,1.2c0.5,0.3,1.1,0.4,1.7,0.4c0.9,0,1.6-0.4,2.2-1.1c0.5-0.7,0.8-1.7,0.8-3.1
					c-0.3,0.5-0.7,0.9-1.2,1.2c-0.5,0.3-1.1,0.4-1.8,0.4c-0.7,0-1.4-0.1-2-0.4c-0.6-0.2-1.1-0.6-1.6-1c-0.4-0.4-0.8-0.9-1.1-1.5
					C320.6,375.5,320.5,374.9,320.5,374.2z M325.7,371.5c-0.4,0-0.7,0.1-1,0.2c-0.3,0.1-0.6,0.3-0.8,0.6c-0.2,0.3-0.4,0.5-0.6,0.9
					c-0.1,0.3-0.2,0.7-0.2,1s0.1,0.7,0.2,1c0.1,0.3,0.3,0.6,0.6,0.8c0.2,0.2,0.5,0.4,0.8,0.6c0.3,0.1,0.7,0.2,1,0.2s0.7-0.1,1-0.2
					c0.3-0.1,0.6-0.3,0.8-0.6c0.2-0.2,0.4-0.5,0.6-0.8c0.1-0.3,0.2-0.7,0.2-1s-0.1-0.7-0.2-1c-0.1-0.3-0.3-0.6-0.6-0.9
					c-0.2-0.2-0.5-0.4-0.8-0.6S326.1,371.5,325.7,371.5z"/>
			</g>
		</g>
	</g>
</g>
<g>
	<g>
		<g>
			<defs>
				<rect id="SVGID_72_" x="-221.9" y="569.8" width="160.1" height="158.2"/>
			</defs>
			<clipPath id="SVGID_1_">
				<use xlink:href="#SVGID_72_"  style="overflow:visible;"/>
			</clipPath>
			<g style="clip-path:url(#SVGID_1_);">
				<defs>
					<rect id="SVGID_74_" x="-228.3" y="567.7" width="166.5" height="166.5"/>
				</defs>
				<clipPath id="SVGID_2_">
					<use xlink:href="#SVGID_74_"  style="overflow:visible;"/>
				</clipPath>
				<g style="clip-path:url(#SVGID_2_);">
					<defs>
						<path id="SVGID_76_" d="M42.8,664.7c0,2.1-1.7,3.8-3.8,3.8h-65.7c-2.1,0-3.8-1.7-3.8-3.8v-39.8c0-2.1,1.7-3.8,3.8-3.8H39
							c2.1,0,3.8,1.7,3.8,3.8V664.7z"/>
					</defs>
					<clipPath id="SVGID_3_">
						<use xlink:href="#SVGID_76_"  style="overflow:visible;"/>
					</clipPath>
				</g>
			</g>
		</g>
	</g>
</g>
</svg>
